<svg width="30" height="27" viewBox="0 0 30 27" fill="none" xmlns="http://www.w3.org/2000/svg">
<path d="M28.681 11.3804V18.3006C28.681 23.1448 25.9129 25.2209 21.7608 25.2209H7.92025C3.7681 25.2209 1 23.1448 1 18.3006V8.61227C1 3.76809 3.7681 1.69202 7.92025 1.69202H17.6086" stroke="white" stroke-width="2" stroke-miterlimit="10" stroke-linecap="round" stroke-linejoin="round"/>
<path d="M7.92017 9.3042L12.2522 12.7643C13.6778 13.8992 16.0169 13.8992 17.4424 12.7643L19.0756 11.4633" stroke="white" stroke-width="2" stroke-miterlimit="10" stroke-linecap="round" stroke-linejoin="round"/>
<path d="M25.2209 7.92025C27.1318 7.92025 28.681 6.3711 28.681 4.46013C28.681 2.54915 27.1318 1 25.2209 1C23.3099 1 21.7607 2.54915 21.7607 4.46013C21.7607 6.3711 23.3099 7.92025 25.2209 7.92025Z" stroke="white" stroke-width="2" stroke-miterlimit="10" stroke-linecap="round" stroke-linejoin="round"/>
</svg>
