<svg width="27" height="27" viewBox="0 0 27 27" fill="none" xmlns="http://www.w3.org/2000/svg">
<path d="M27 18.5767C27 23.342 24.1592 26.1829 19.3939 26.1829H17.836C17.116 26.1829 16.5269 25.5938 16.5269 24.8737V17.32C16.5269 16.9665 16.8149 16.6654 17.1683 16.6654L19.4724 16.6261C19.6557 16.613 19.8128 16.4821 19.8521 16.2988L20.3103 13.7984C20.3496 13.5627 20.1663 13.3402 19.9175 13.3402L17.1291 13.3794C16.7625 13.3794 16.4745 13.0914 16.4614 12.738L16.409 9.53056C16.409 9.3211 16.5792 9.13783 16.8018 9.13783L19.9437 9.08545C20.1663 9.08545 20.3365 8.91528 20.3365 8.69272L20.2841 5.55076C20.2841 5.3282 20.1139 5.15802 19.8914 5.15802L16.3567 5.2104C14.1835 5.24968 12.4554 7.0301 12.4947 9.20328L12.5602 12.8034C12.5732 13.17 12.2852 13.458 11.9187 13.4711L10.3477 13.4973C10.1251 13.4973 9.95497 13.6675 9.95497 13.89L9.99425 16.3774C9.99425 16.5999 10.1644 16.7701 10.387 16.7701L11.9579 16.7439C12.3245 16.7439 12.6125 17.032 12.6256 17.3854L12.7434 24.8475C12.7565 25.5807 12.1674 26.1829 11.4343 26.1829H8.42326C3.65798 26.1829 0.817139 23.342 0.817139 18.5637V7.60612C0.817139 2.84084 3.65798 0 8.42326 0H19.3939C24.1592 0 27 2.84084 27 7.60612V18.5767Z" fill="white"/>
</svg>
