<svg width="27" height="27" viewBox="0 0 27 27" fill="none" xmlns="http://www.w3.org/2000/svg">
<path d="M18.586 0.143066H7.60991C2.84226 0.143066 0 2.98532 0 7.75298V18.716C0 23.4967 2.84226 26.339 7.60991 26.339H18.5729C23.3406 26.339 26.1828 23.4967 26.1828 18.7291V7.75298C26.1959 2.98532 23.3537 0.143066 18.586 0.143066ZM13.098 18.323C10.295 18.323 8.01595 16.044 8.01595 13.241C8.01595 10.4381 10.295 8.15902 13.098 8.15902C15.9009 8.15902 18.18 10.4381 18.18 13.241C18.18 16.044 15.9009 18.323 13.098 18.323ZM20.852 6.53487C20.7865 6.69205 20.6948 6.83612 20.5769 6.9671C20.4459 7.08499 20.3018 7.17667 20.1447 7.24216C19.9875 7.30765 19.8172 7.34694 19.6469 7.34694C19.2933 7.34694 18.9658 7.21596 18.717 6.9671C18.5991 6.83612 18.5074 6.69205 18.4419 6.53487C18.3764 6.3777 18.3371 6.20742 18.3371 6.03715C18.3371 5.86687 18.3764 5.6966 18.4419 5.53943C18.5074 5.36915 18.5991 5.23817 18.717 5.10719C19.0182 4.80594 19.4767 4.66186 19.8958 4.75355C19.9875 4.76665 20.0661 4.79284 20.1447 4.83214C20.2232 4.85833 20.3018 4.89763 20.3804 4.95002C20.4459 4.98931 20.5114 5.0548 20.5769 5.10719C20.6948 5.23817 20.7865 5.36915 20.852 5.53943C20.9174 5.6966 20.9567 5.86687 20.9567 6.03715C20.9567 6.20742 20.9174 6.3777 20.852 6.53487Z" fill="white"/>
</svg>
