<svg width="28" height="32" viewBox="0 0 28 32" fill="none" xmlns="http://www.w3.org/2000/svg">
<path d="M13.8376 19.0643C10.6946 19.0643 8.12708 16.5116 8.12708 13.3539C8.12708 10.1962 10.6946 7.6582 13.8376 7.6582C16.9806 7.6582 19.5481 10.2109 19.5481 13.3686C19.5481 16.5264 16.9806 19.0643 13.8376 19.0643ZM13.8376 9.87157C11.9194 9.87157 10.3404 11.4357 10.3404 13.3686C10.3404 15.3016 11.9046 16.8657 13.8376 16.8657C15.7706 16.8657 17.3347 15.3016 17.3347 13.3686C17.3347 11.4357 15.7559 9.87157 13.8376 9.87157Z" fill="white"/>
<path d="M13.836 31.7396C11.6521 31.7396 9.45348 30.9133 7.74182 29.2754C3.38887 25.0848 -1.42151 18.4004 0.393449 10.4471C2.03134 3.23151 8.33205 0 13.836 0H13.8507C19.3546 0 25.6553 3.23151 27.2932 10.4618C29.0934 18.4152 24.283 25.0848 19.9301 29.2754C18.2184 30.9133 16.0198 31.7396 13.836 31.7396ZM13.836 2.21336C9.54202 2.21336 4.02337 4.5005 2.56255 10.934C0.968924 17.884 5.33663 23.8748 9.29117 27.667C11.8439 30.1313 15.8427 30.1313 18.3955 27.667C22.3353 23.8748 26.703 17.884 25.1389 10.934C23.6633 4.5005 18.1299 2.21336 13.836 2.21336Z" fill="white"/>
</svg>
