<svg width="28" height="28" viewBox="0 0 28 28" fill="none" xmlns="http://www.w3.org/2000/svg">
<path d="M20.8962 27.7326C19.4386 27.7326 17.9037 27.3843 16.3171 26.7136C14.7692 26.0558 13.2085 25.1528 11.6864 24.0564C10.1772 22.9471 8.71965 21.7088 7.33947 20.3544C5.97219 18.9743 4.73389 17.5167 3.63749 16.0204C2.52818 14.4726 1.63816 12.9247 1.00611 11.4284C0.335371 9.82895 0 8.28109 0 6.82351C0 5.8174 0.180584 4.86288 0.528854 3.97286C0.890023 3.05704 1.47047 2.20571 2.25731 1.47047C3.25052 0.490158 4.38562 0 5.59812 0C6.10117 0 6.61713 0.11609 7.05569 0.322472C7.55875 0.554652 7.98441 0.902922 8.29399 1.36728L11.2865 5.58522C11.5574 5.95929 11.7638 6.32046 11.9057 6.68162C12.0734 7.06859 12.1637 7.45556 12.1637 7.82963C12.1637 8.31978 12.0218 8.79704 11.7509 9.2485C11.5574 9.59677 11.2607 9.97084 10.8867 10.3449L10.0095 11.2607C10.0224 11.2994 10.0353 11.3252 10.0482 11.351C10.203 11.6219 10.5126 12.0863 11.1059 12.7828C11.738 13.5051 12.3313 14.163 12.9247 14.7692C13.6857 15.5174 14.3178 16.1107 14.9111 16.6009C15.6464 17.22 16.1236 17.5296 16.4074 17.6715L16.3816 17.736L17.3232 16.8073C17.7231 16.4074 18.11 16.1107 18.4841 15.9172C19.1935 15.4787 20.0965 15.4013 20.9994 15.7753C21.3348 15.9172 21.6959 16.1107 22.0829 16.3816L26.3653 19.4257C26.8426 19.7482 27.1909 20.161 27.3972 20.6511C27.5907 21.1413 27.681 21.5927 27.681 22.0442C27.681 22.6633 27.5391 23.2825 27.2683 23.8629C26.9974 24.4434 26.662 24.9465 26.2363 25.4108C25.5011 26.2234 24.7014 26.8039 23.7727 27.178C22.8826 27.5391 21.9152 27.7326 20.8962 27.7326ZM5.59812 1.93483C4.88868 1.93483 4.23084 2.24441 3.59879 2.86355C3.00544 3.41821 2.59268 4.02445 2.3347 4.6823C2.06382 5.35304 1.93483 6.06248 1.93483 6.82351C1.93483 8.02311 2.21861 9.3259 2.78616 10.6674C3.36661 12.0347 4.17924 13.4535 5.21115 14.8724C6.24306 16.2913 7.41686 17.6715 8.70675 18.9743C9.99664 20.2513 11.3897 21.438 12.8215 22.4828C14.2146 23.5018 15.6464 24.3273 17.0652 24.9207C19.2709 25.8623 21.3348 26.0816 23.0374 25.3721C23.6953 25.1012 24.2757 24.6885 24.8046 24.0951C25.1012 23.7727 25.3334 23.4244 25.5269 23.0116C25.6817 22.6891 25.7591 22.3538 25.7591 22.0184C25.7591 21.812 25.7204 21.6056 25.6172 21.3735C25.5785 21.2961 25.5011 21.1542 25.256 20.9865L20.9736 17.9424C20.7156 17.7618 20.4834 17.6328 20.2642 17.5425C19.9804 17.4264 19.8643 17.3103 19.4257 17.5812C19.1677 17.7102 18.9356 17.9037 18.6776 18.1616L17.6973 19.1291C17.1942 19.6192 16.4203 19.7353 15.8269 19.516L15.4787 19.3612C14.9498 19.0775 14.3307 18.6389 13.647 18.0584C13.0279 17.5296 12.3571 16.9104 11.5445 16.1107C10.9125 15.4658 10.2804 14.7821 9.62257 14.0211C9.01632 13.3117 8.57776 12.7054 8.30688 12.2023L8.1521 11.8154C8.07471 11.5187 8.04891 11.351 8.04891 11.1704C8.04891 10.7061 8.21659 10.2933 8.53907 9.97084L9.50648 8.96473C9.76446 8.70675 9.95794 8.46167 10.0869 8.24239C10.1901 8.07471 10.2288 7.93282 10.2288 7.80383C10.2288 7.70064 10.1901 7.54585 10.1256 7.39106C10.0353 7.18468 9.89345 6.9525 9.71286 6.70742L6.72032 2.47659C6.59133 2.296 6.43655 2.16701 6.24306 2.07672C6.03668 1.98643 5.8174 1.93483 5.59812 1.93483ZM16.3816 17.7489L16.1752 18.626L16.5235 17.7231C16.459 17.7102 16.4074 17.7231 16.3816 17.7489Z" fill="white"/>
</svg>
